<?xml version="1.0" encoding="UTF-8"?>
<svg id="Capa_1" data-name="Capa 1" xmlns="http://www.w3.org/2000/svg" viewBox="0 489 911 283">
  <defs>
    <style>
      .cls-1 {
        fill: #fff;
      }
    </style>
  </defs>
  <g>
    <path class="cls-1" d="M0,489.05h117.61v52.27h-61.77v61.06h57.02v52.27h-57.02v117.14H0v-282.74Z"/>
    <path class="cls-1" d="M190.08,771.79h-53.46v-285.12h53.46v285.12Z"/>
    <path class="cls-1" d="M210.98,519.7c0-6.81,1.9-12.91,5.7-18.29,1.58-2.53,3.68-4.75,6.3-6.65,2.61-1.9,5.35-3.25,8.2-4.04,3.01-.95,6.18-1.43,9.5-1.43s6.25.44,9.27,1.31c3.01.87,5.86,2.26,8.55,4.16,5.07,3.8,8.55,8.79,10.45,14.97.95,3.17,1.43,6.5,1.43,9.98,0,8.72-2.77,16.08-8.32,22.1-5.55,6.02-12.67,9.03-21.38,9.03-6.81,0-12.67-1.98-17.58-5.94-2.53-1.9-4.67-4.08-6.41-6.53-1.74-2.45-3.17-5.42-4.28-8.91-.95-3.01-1.43-6.26-1.43-9.74ZM213.84,771.79v-206.71h53.46v206.71h-53.46Z"/>
    <path class="cls-1" d="M344.51,486.68v115c0,1.74-.12,3.96-.36,6.65-.24,2.69-.52,5.07-.83,7.13-.48,2.38-1.07,5.15-1.78,8.32-.71,3.17-1.47,6.34-2.26,9.5-.48,1.59-.95,3.25-1.43,4.99-.64,1.74-1.19,3.49-1.66,5.23h3.8c.79-2.85,1.31-4.67,1.54-5.46.24-.79.51-1.7.83-2.73.31-1.03,1.11-3.36,2.38-7.01,1.11-3.01,2.21-5.78,3.33-8.32,1.11-2.53,2.29-5.23,3.56-8.08.63-1.27,1.26-2.53,1.9-3.8.63-1.26,1.27-2.53,1.9-3.8l21.15-39.2h53.46l-44.67,73.65,48.23,133.06h-53.46l-29.46-81.5-6.18,9.03v72.47h-53.46v-285.12h53.46Z"/>
    <path class="cls-1" d="M504.89,486.68v115c0,1.74-.12,3.96-.36,6.65-.24,2.69-.52,5.07-.83,7.13-.48,2.38-1.07,5.15-1.78,8.32-.71,3.17-1.47,6.34-2.26,9.5-.48,1.59-.95,3.25-1.43,4.99-.64,1.74-1.19,3.49-1.66,5.23h3.8c.79-2.85,1.31-4.67,1.54-5.46.24-.79.51-1.7.83-2.73.31-1.03,1.11-3.36,2.38-7.01,1.11-3.01,2.21-5.78,3.33-8.32,1.11-2.53,2.29-5.23,3.56-8.08.63-1.27,1.26-2.53,1.9-3.8.63-1.26,1.27-2.53,1.9-3.8l21.15-39.2h53.46l-44.67,73.65,48.23,133.06h-53.46l-29.46-81.5-6.18,9.03v72.47h-53.46v-285.12h53.46Z"/>
    <path class="cls-1" d="M782.87,667.72v17.34h-144.46c.95,4.75,2.49,9.15,4.63,13.19,2.14,4.04,4.55,7.48,7.25,10.34,3.01,3.17,6.18,5.78,9.5,7.84,3.33,2.06,7.37,3.64,12.12,4.75,2.06.64,4.24,1.11,6.53,1.43,2.29.32,4.71.48,7.25.48,7.6,0,14.57-1.26,20.91-3.8,6.33-2.53,11.48-6.1,15.44-10.69.95-1.11,1.82-2.29,2.61-3.56.79-1.27,1.5-2.53,2.14-3.8h54.41c-2.22,9.82-5.46,18.38-9.74,25.66-4.28,7.29-9.03,13.39-14.26,18.29-6.02,6.02-12.79,11.17-20.31,15.44-7.53,4.28-15.72,7.6-24.59,9.98-4.28,1.11-8.72,1.98-13.31,2.61-4.6.63-9.27.95-14.02.95-12.2,0-23.25-1.78-33.14-5.35-9.9-3.56-18.73-8.35-26.49-14.37-16.95-12.99-28.59-30.33-34.93-52.03-3.17-10.77-4.75-22.33-4.75-34.69s1.66-23.28,4.99-34.21c3.33-10.93,8-20.67,14.02-29.22,6.18-8.71,13.42-16.16,21.74-22.33,8.32-6.18,17.46-10.93,27.44-14.26,10.14-3.33,20.67-4.99,31.6-4.99s20.99,1.78,31.12,5.35c10.14,3.56,19.09,8.52,26.85,14.85,8.08,6.65,15.09,14.26,21.03,22.81,5.94,8.55,10.49,18.22,13.66,28.99,3.17,10.45,4.75,21.46,4.75,33.02ZM639.37,649.43h91c-2.54-8.39-6.81-15.6-12.83-21.62-5.86-5.86-12.75-9.98-20.67-12.35-2.06-.48-4.12-.87-6.18-1.19-2.06-.32-4.2-.48-6.41-.48-8.08,0-15.84,2.14-23.28,6.41-2.69,1.58-5.51,3.8-8.43,6.65-2.93,2.85-5.58,6.41-7.96,10.69-2.22,3.96-3.96,7.92-5.23,11.88Z"/>
    <path class="cls-1" d="M800.69,565.08h53.46c0,1.74-.16,3.29-.48,4.63-.32,1.35-.87,3.13-1.66,5.35-.79,2.38-1.27,3.8-1.43,4.28-.16.48-.44.99-.83,1.54-.4.56-1.15,2.18-2.26,4.87-.79,1.74-1.74,3.33-2.85,4.75l2.85,2.38c2.53-3.8,5.03-7.13,7.48-9.98,2.45-2.85,5.58-5.62,9.38-8.32,6.33-4.43,13.94-7.28,22.81-8.55,4.11-.63,8.87-.95,14.26-.95h9.27l-2.38,51.08h-14.97c-12.51,0-22.1,1.98-28.75,5.94-6.97,4.28-10.45,10.14-10.45,17.58v132.11h-53.46v-206.71Z"/>
  </g>
</svg>
